PathFileType	4	(X/Y/Z)	OpenSim_Sub04_EMGStiffKnee_Accel.trc
DataRate	CameraRate	NumFrames	NumMarkers	Units	OrigDataRate	OrigDataStartFrame	OrigNumFrames
100	100	30	8	m	100	2070	8277
Frame#	Time	torso_imu_offset_imu	pelvis_imu_offset_imu	tibia_r_imu_offset_imu	femur_r_imu_offset_imu	tibia_l_imu_offset_imu	femur_l_imu_offset_imu	toes_r_imu_offset_imu	toes_l_imu_offset_imu
				X1	Y1	Z1	X2	Y2	Z2	X3	Y3	Z3	X4	Y4	Z4	X5	Y5	Z5	X6	Y6	Z6	X7	Y7	Z7	X8		Y8	Z8	

2070	20.69000000	-6.69227102	1.13932661	7.15697092	7.82051090	3.90218485	3.99407951	9.15677130	1.60107506	0.33434955	7.71384591	-1.57858136	-0.06167882	9.59159298	-4.32557500	1.25070960	8.29735246	1.03533883	-0.19875275	5.97851866	-1.72877543	7.70162131	9.54828612	0.67997321	10.74266720
2071	20.70000000	-6.93232771	1.09807101	7.33461940	7.95775256	3.97157882	3.89437289	9.39417034	1.29320569	0.40538050	7.95467309	-1.34239772	-0.17898955	9.75432334	-4.73928105	1.17436294	8.68164405	1.18920671	-0.27077154	6.16593474	-1.71916900	7.64798980	9.53937716	1.30177686	10.79661559
2072	20.71000000	-7.04624840	0.97336623	7.45386298	7.81390425	3.87609499	3.68092330	9.56382071	1.26627582	0.51071771	8.09163148	-1.41840838	-0.21023773	9.72791277	-5.69116392	0.99538763	9.01103571	1.19872670	-0.51711260	6.01530025	-1.62197843	7.63664824	9.17625035	1.46785336	10.69706220
2073	20.72000000	-7.12062458	0.90547169	7.53301444	7.69275833	3.75335509	3.39613953	9.64072520	1.42182055	0.76278892	8.36185701	-1.71675711	-0.43457253	9.31113545	-6.62603413	0.62316666	9.10720574	1.34753987	-0.87327408	6.12657662	-1.34750865	7.64103849	9.02143543	1.44916632	10.44199760
2074	20.73000000	-7.33215916	0.85569513	7.61157903	7.63360292	3.54381901	3.25695158	9.65564373	1.55091949	0.81295634	8.83990138	-2.09473266	-0.63052777	8.91285218	-7.16375768	0.37876723	8.97819982	1.50420406	-1.31181497	5.96998552	-1.22542770	7.79930992	9.60110394	0.98394336	9.99206064
2075	20.74000000	-7.59991040	0.76918715	7.77154208	7.69508160	3.22341749	3.24018052	9.86277126	1.82738826	1.04039170	9.14954724	-2.80072638	-0.48412052	8.73354920	-7.19216114	0.21207941	8.80085773	1.30593850	-1.48522753	5.72284555	-1.22894653	7.95528447	10.48747783	0.52701638	9.37637910
2076	20.75000000	-7.83156822	0.66673102	7.94505640	8.07891442	2.84128929	3.33413959	10.11960384	2.16471961	1.33338660	9.24219118	-3.73311296	-0.24557951	8.76313588	-6.85629837	0.23932827	8.67997199	0.95764255	-1.42295917	5.58382417	-1.16942781	8.17697497	11.00755274	0.58167736	8.72795408
2077	20.76000000	-7.99836507	0.56917989	8.07218608	8.55531635	2.31162399	3.49585364	10.27421162	2.35611230	1.47482965	9.20350730	-4.47192026	-0.06731031	8.89893553	-6.30547313	0.47254939	8.69477779	0.64671867	-1.26919029	5.69335489	-0.81408324	8.28193315	12.43679295	0.21652718	8.28601570
2078	20.77000000	-8.16656060	0.51273466	8.25496217	9.18886606	1.85171339	3.61224736	10.31663779	2.23399180	1.69148906	9.29359426	-4.79408260	-0.09895074	9.02051237	-5.63127085	0.75269479	8.82722009	0.51038989	-1.07233155	5.64096776	-0.63799836	8.41508744	14.31415421	-0.28422521	7.74855363
2079	20.78000000	-8.19741539	0.49074885	8.42555285	9.82733478	1.53110434	3.69387965	10.26459798	2.00614887	1.81047397	9.12116331	-4.91417333	-0.28532397	9.25935047	-5.00257870	0.94622932	9.07422609	0.47998928	-0.81546375	5.30962158	-1.05196494	8.50586472	14.82997269	-1.76626671	6.42595004
2080	20.79000000	-8.06291358	0.53829581	8.47958392	10.03684234	1.21915864	3.67693365	10.08115055	1.99138797	1.41732106	8.69261915	-4.72198019	-0.44378037	9.49926585	-4.59226059	0.91130481	9.40302379	0.57167813	-0.54584182	5.42686943	-0.97969786	8.60385607	14.44809289	-0.63108258	4.28074185
2081	20.80000000	-7.99846729	0.56157114	8.55268809	9.84307551	1.01003286	3.47060150	9.86443846	2.07998313	1.15613943	8.33442685	-4.44177164	-0.53817206	9.57637099	-4.35142444	0.73435155	9.66495202	0.84482733	-0.37665547	5.60212432	-1.18805499	8.30438615	14.79486649	2.60716053	2.37956793
2082	20.81000000	-8.01109178	0.49436899	8.59132335	9.54049514	0.99536880	3.23169497	9.66939723	2.31864165	0.87910896	8.19068608	-4.11595499	-0.61157052	9.44014331	-3.89580476	0.72719635	9.70803065	0.89039304	-0.14739807	5.86345217	-1.24757881	8.17172697	15.31159415	3.94616358	1.24016093
2083	20.82000000	-7.96221924	0.42006401	8.47303827	9.28694730	1.05485758	3.05567199	9.52230035	2.86829477	0.73395749	8.30184984	-3.76088626	-0.68894525	9.07861966	-3.69349525	0.96633916	9.47002625	0.74696799	0.04331811	5.72871889	-1.17483376	8.38563684	15.30540254	3.67464654	0.00213510
2084	20.83000000	-7.79170428	0.39659760	8.41790882	9.05191379	1.16410915	2.84509830	9.51122724	3.31179016	0.84026809	8.59399818	-3.28739445	-0.60345535	8.56668692	-4.14603349	0.95556351	9.09993234	0.70653437	0.09950237	5.83073877	-1.32393390	8.11822169	15.31425907	3.14671163	-1.26685169
2085	20.84000000	-7.62583978	0.37226285	8.39797371	8.93062168	1.36948508	2.72864067	9.60093932	3.23132911	1.06268980	8.75255531	-2.89832392	-0.49177546	8.08852552	-4.81676466	0.60776444	8.55548638	0.80618241	0.00225516	5.84852691	-1.41577364	8.27117967	16.13783492	2.52111917	-2.13600133
2086	20.85000000	-7.55405461	0.39550801	8.27552345	8.85985610	1.67389430	2.69425014	9.73824174	2.41931828	1.51349973	8.80493095	-2.82149511	-0.42462067	7.73142324	-5.27318535	0.46717399	7.94916591	0.88218387	-0.15827626	5.70455298	-1.57542880	8.41089738	17.38063088	1.14557093	-3.21766699
2087	20.86000000	-7.47028567	0.43674873	8.20962685	8.72390329	1.87273948	2.75220666	9.96244937	1.32223441	1.46859389	8.79334038	-2.86738276	-0.43611336	7.57024878	-5.55792581	0.42365299	7.57254588	0.72607960	-0.21964073	5.62559654	-1.74669065	8.40673519	20.28254833	0.55446822	-4.10577422
2088	20.87000000	-7.39501696	0.44956781	8.21618853	8.58761938	2.04094116	2.83118197	10.27314393	0.13363347	1.59685182	8.65894242	-2.84305121	-0.23873350	7.49653691	-5.97294228	0.22701132	7.36671296	0.44707510	-0.31598332	5.66968123	-1.61974436	8.60079285	20.30116507	-4.05710406	-8.08110152
2089	20.88000000	-7.24579811	0.50475179	8.22704127	8.51709008	2.22169137	3.00216045	10.57223704	-0.92458304	2.40998983	8.51460396	-2.88059366	0.18658300	7.43671295	-7.25335982	-0.53893688	7.25919139	0.21644562	-0.44646276	5.85397678	-1.07113190	8.98263777	17.34920828	1.34097202	5.78393755
2090	20.89000000	-7.08748959	0.50116704	8.26156962	8.26804729	2.29076499	3.48119847	10.84494453	-1.45223430	3.53167650	8.43842849	-3.06601917	0.45671276	7.74367953	-9.57022957	-2.15558068	7.39635846	0.08242092	-0.40788302	5.79592066	-0.91051841	9.45382482	19.78953642	9.64712749	21.66844195
2091	20.90000000	-7.23009303	0.40549993	8.56001649	8.03694551	2.33821918	4.47232992	11.27458060	-1.84069727	3.88983267	8.59263597	-3.40687804	0.49156522	9.25028144	-9.56589528	-2.52547927	8.61385552	0.23227771	-0.98078564	5.53876707	-0.58335858	9.79020908	10.90072028	1.93828104	15.32498615
2092	20.91000000	-7.88395965	0.26343335	9.03677568	8.06029940	2.27655667	5.53746910	12.31181309	-2.26026911	4.19705307	9.12515052	-4.01925918	0.30345051	11.57041495	-7.06535093	-0.64579447	12.09136295	1.17072074	-2.32161765	5.04557857	1.07662022	12.01940448	5.30950685	-1.40256788	12.77936882
2093	20.92000000	-8.77254735	-0.06510196	9.33912665	8.34413224	1.94970901	6.07728856	14.51129993	-2.42782480	5.36734768	10.07960332	-5.01199537	0.19255014	13.30356163	-5.00288627	2.08386116	16.07685728	1.99327283	-3.04647714	4.51909353	-1.26282579	12.66195375	6.92592269	2.24469425	13.57135770
2094	20.93000000	-9.25688856	-0.54448987	9.53205108	8.97992600	1.36482993	6.42275178	17.22773258	-2.51014756	5.24802069	10.92027771	-6.18143096	0.17185719	13.08675191	-3.78317726	2.03959806	15.63059603	0.95769681	-2.89574068	4.70067358	-2.92365056	12.67949676	4.78055489	2.48157089	12.13849301
2095	20.94000000	-9.09657042	-0.96706843	9.66050939	9.79467051	0.57478591	6.78989834	19.09821288	-3.06065757	4.37708292	11.07274560	-6.92609253	0.30967997	11.95381599	-4.62831294	0.10106958	12.10031171	-0.61381068	-2.68426626	4.89724317	-2.08176158	13.54367571	5.94973127	2.01500994	11.99998564
2096	20.95000000	-8.51852251	-1.22347354	9.63276611	10.79985797	-0.22938096	6.83246813	19.40036015	-3.16659940	3.64485225	10.79362050	-6.98389293	0.99837304	11.31725362	-5.73851821	0.87490373	10.28974224	-1.09168483	-2.80833465	5.17901074	-3.43329924	13.26749239	5.20741567	1.98857361	11.70074882
2097	20.96000000	-7.91815667	-1.39716804	9.44848329	11.70298250	-0.71338259	6.43068788	18.15179753	-1.61574272	2.63803595	10.42061089	-6.40989724	2.12622175	10.22233429	-4.38572096	1.56277913	10.05302432	-0.73935275	-2.94644402	6.36527839	-2.33668532	14.45244873	5.83806330	1.77703213	11.18854108
2098	20.97000000	-7.52656457	-1.56293506	9.12828574	11.52712428	-0.76373480	5.94519784	16.14494975	0.80381739	1.10181945	10.19729996	-5.43272838	3.30598385	9.03442774	-2.83132394	0.34206787	10.01784296	-0.33738941	-2.78229415	8.54673897	-5.12867934	14.15680944	5.64333513	1.96079937	11.15801462
2099	20.98000000	-7.42326057	-1.69665261	8.78629152	10.43171552	-0.66236720	5.56307863	14.13722610	3.44097467	-0.66706564	10.59641554	-4.21075101	4.09184549	8.53173727	-3.03710328	-0.71126225	9.85398445	-0.43502796	-2.70156938	9.77610611	-10.20375395	13.49025800	5.00101129	2.36507663	11.41418718
